# xmcd
#
# Track frame offsets:
#       150
#       20775
#       43909
#       61528
#       79978
#       99758
#       116327
#       130851
#       150419
#       167349
#       189993
#       205512
#       226506
#       245631
#       264831
#       284708
#
# Disc length: 4109 seconds
#
# Revision: 2
# Processed by: cddbd v1.5.2PL0 Copyright (c) Steve Scherf et al.
# Submitted via: FreeDbEdit v0.1
#
DISCID=c2100b10
DTITLE=Shania Twain - Star Quest SQ0004
DYEAR=2004
DGENRE=Country
TTITLE0=Any Man of Mine
TTITLE1=Forever and Always
TTITLE2=You're Still the One
TTITLE3=That Don't Impress Me Much
TTITLE4=Juanita
TTITLE5=You've Got a Way
TTITLE6=Up
TTITLE7=Man! I Feel Like a Woman
TTITLE8=It Only Hurts
TTITLE9=The Woman in Me
TTITLE10=No One Needs to Know
TTITLE11=Whose Bed Have Your Boots Been Under
TTITLE12=God Bless the Child
TTITLE13=If You're Not in It for Love
TTITLE14=I'm Gonna Getcha
TTITLE15=From This Moment
EXTD=
EXTT0=
EXTT1=
EXTT2=
EXTT3=
EXTT4=
EXTT5=
EXTT6=
EXTT7=
EXTT8=
EXTT9=
EXTT10=
EXTT11=
EXTT12=
EXTT13=
EXTT14=
EXTT15=
PLAYORDER=
